<mxfile host="app.diagrams.net" modified="2023-05-11T01:38:05.372Z" agent="Mozilla/5.0 (Macintosh; Intel Mac OS X 10_15_7) AppleWebKit/605.1.15 (KHTML, like Gecko) Version/15.6 Safari/605.1.15" etag="ZspyxW230wb-BlafOk72" version="21.2.9" type="device">
  <diagram id="T815P6-326GQ2lns1X6j" name="페이지-2">
    <mxGraphModel dx="868" dy="312" grid="0" gridSize="10" guides="1" tooltips="1" connect="1" arrows="1" fold="1" page="0" pageScale="1" pageWidth="827" pageHeight="1169" math="0" shadow="0">
      <root>
        <mxCell id="0" />
        <mxCell id="1" parent="0" />
        <mxCell id="zvBkrl2XRBxhGwxwOTIy-1" value=":Recruitment" style="rounded=0;whiteSpace=wrap;html=1;" parent="1" vertex="1">
          <mxGeometry x="1357" y="654" width="120" height="84" as="geometry" />
        </mxCell>
        <mxCell id="zvBkrl2XRBxhGwxwOTIy-2" value=":CheckDetailedRecruitment" style="rounded=0;whiteSpace=wrap;html=1;" parent="1" vertex="1">
          <mxGeometry x="1072" y="652" width="158" height="86" as="geometry" />
        </mxCell>
        <mxCell id="zvBkrl2XRBxhGwxwOTIy-3" value=":CheckDetailedRecruitment UI" style="rounded=0;whiteSpace=wrap;html=1;" parent="1" vertex="1">
          <mxGeometry x="765" y="654" width="186" height="84" as="geometry" />
        </mxCell>
        <mxCell id="zvBkrl2XRBxhGwxwOTIy-4" value=": NormalMember" style="shape=umlActor;verticalLabelPosition=bottom;verticalAlign=top;html=1;outlineConnect=0;" parent="1" vertex="1">
          <mxGeometry x="591" y="666" width="30" height="60" as="geometry" />
        </mxCell>
        <mxCell id="zvBkrl2XRBxhGwxwOTIy-5" value="" style="endArrow=none;html=1;rounded=0;entryX=0;entryY=0.5;entryDx=0;entryDy=0;exitX=0.5;exitY=0.5;exitDx=0;exitDy=0;exitPerimeter=0;" parent="1" source="zvBkrl2XRBxhGwxwOTIy-4" target="zvBkrl2XRBxhGwxwOTIy-3" edge="1">
          <mxGeometry width="50" height="50" relative="1" as="geometry">
            <mxPoint x="1086" y="804" as="sourcePoint" />
            <mxPoint x="1136" y="754" as="targetPoint" />
          </mxGeometry>
        </mxCell>
        <mxCell id="zvBkrl2XRBxhGwxwOTIy-6" value="" style="endArrow=none;html=1;rounded=0;entryX=1;entryY=0.5;entryDx=0;entryDy=0;exitX=0;exitY=0.5;exitDx=0;exitDy=0;" parent="1" source="zvBkrl2XRBxhGwxwOTIy-2" target="zvBkrl2XRBxhGwxwOTIy-3" edge="1">
          <mxGeometry width="50" height="50" relative="1" as="geometry">
            <mxPoint x="1096" y="814" as="sourcePoint" />
            <mxPoint x="1146" y="764" as="targetPoint" />
          </mxGeometry>
        </mxCell>
        <mxCell id="zvBkrl2XRBxhGwxwOTIy-7" value="" style="endArrow=none;html=1;rounded=0;entryX=1;entryY=0.5;entryDx=0;entryDy=0;exitX=0;exitY=0.5;exitDx=0;exitDy=0;" parent="1" source="zvBkrl2XRBxhGwxwOTIy-1" target="zvBkrl2XRBxhGwxwOTIy-2" edge="1">
          <mxGeometry width="50" height="50" relative="1" as="geometry">
            <mxPoint x="1106" y="824" as="sourcePoint" />
            <mxPoint x="1156" y="774" as="targetPoint" />
          </mxGeometry>
        </mxCell>
        <mxCell id="zvBkrl2XRBxhGwxwOTIy-8" value="" style="endArrow=classic;html=1;rounded=0;" parent="1" edge="1">
          <mxGeometry width="50" height="50" relative="1" as="geometry">
            <mxPoint x="1258" y="675" as="sourcePoint" />
            <mxPoint x="1330" y="675" as="targetPoint" />
          </mxGeometry>
        </mxCell>
        <mxCell id="zvBkrl2XRBxhGwxwOTIy-9" value="2.1.1 *[companyName || job] : getRecruitmentDetails()" style="text;html=1;align=center;verticalAlign=middle;resizable=0;points=[];autosize=1;strokeColor=none;fillColor=none;" parent="1" vertex="1">
          <mxGeometry x="1141" y="621" width="305" height="26" as="geometry" />
        </mxCell>
        <mxCell id="zvBkrl2XRBxhGwxwOTIy-10" value="" style="endArrow=classic;html=1;rounded=0;" parent="1" edge="1">
          <mxGeometry width="50" height="50" relative="1" as="geometry">
            <mxPoint x="1056" y="719" as="sourcePoint" />
            <mxPoint x="966" y="719" as="targetPoint" />
          </mxGeometry>
        </mxCell>
        <mxCell id="zvBkrl2XRBxhGwxwOTIy-11" value="1 : startInterface()" style="text;html=1;align=center;verticalAlign=middle;resizable=0;points=[];autosize=1;strokeColor=none;fillColor=none;" parent="1" vertex="1">
          <mxGeometry x="956" y="754" width="113" height="26" as="geometry" />
        </mxCell>
        <mxCell id="sXbvcJ66e8LvNszSzOTg-1" value="" style="endArrow=classic;html=1;rounded=0;" edge="1" parent="1">
          <mxGeometry width="50" height="50" relative="1" as="geometry">
            <mxPoint x="971" y="677" as="sourcePoint" />
            <mxPoint x="1058" y="677" as="targetPoint" />
          </mxGeometry>
        </mxCell>
        <mxCell id="sXbvcJ66e8LvNszSzOTg-2" value="" style="endArrow=classic;html=1;rounded=0;" edge="1" parent="1">
          <mxGeometry width="50" height="50" relative="1" as="geometry">
            <mxPoint x="659" y="679" as="sourcePoint" />
            <mxPoint x="746" y="679" as="targetPoint" />
          </mxGeometry>
        </mxCell>
        <mxCell id="sXbvcJ66e8LvNszSzOTg-6" value="2 : insertSearchValue()&lt;br&gt;3 : selectRecruitment()" style="text;html=1;align=center;verticalAlign=middle;resizable=0;points=[];autosize=1;strokeColor=none;fillColor=none;" vertex="1" parent="1">
          <mxGeometry x="629" y="617" width="140" height="40" as="geometry" />
        </mxCell>
        <mxCell id="sXbvcJ66e8LvNszSzOTg-7" value="2.1 [companyName || job] : showRecruitments()" style="text;html=1;align=center;verticalAlign=middle;resizable=0;points=[];autosize=1;strokeColor=none;fillColor=none;" vertex="1" parent="1">
          <mxGeometry x="853" y="624" width="271" height="26" as="geometry" />
        </mxCell>
        <mxCell id="sXbvcJ66e8LvNszSzOTg-8" value="sd 채용상세정보조회" style="shape=umlFrame;whiteSpace=wrap;html=1;pointerEvents=0;" vertex="1" parent="1">
          <mxGeometry x="545" y="562" width="954" height="294" as="geometry" />
        </mxCell>
      </root>
    </mxGraphModel>
  </diagram>
</mxfile>
